# xmcd CD database file
#
# Track frame offsets:
#	150
#	31769
#	54212
#	76879
#	95936
#	119540
#	144795
#	177769
#	197012
#
# Disc length: 3021 seconds
#
# Revision: 0
# Processed by: cddbd v1.5.1PL0 Copyright (c) Steve Scherf et al.
# Submitted via: CDex 1.51
#
DISCID=6c0bcb09
DTITLE=Miten - Dance Of Life
DYEAR=1999
DGENRE=New Age
TTITLE0=Deeper
TTITLE1=Come People Come
TTITLE2=Dance of Life
TTITLE3=Whenever I See Your Face
TTITLE4=Whate Swan
TTITLE5=Rhythm of Life
TTITLE6=Illah Illah Illah (Carry me Away)
TTITLE7=Shadow of Light
TTITLE8=Existance
EXTD=YEAR: 1999
EXTT0=
EXTT1=
EXTT2=
EXTT3=
EXTT4=
EXTT5=
EXTT6=
EXTT7=
EXTT8=
PLAYORDER=
